<svg xmlns="http://www.w3.org/2000/svg" viewBox="0 0 48 48"><path d="M10 6L3.42 8.16a2 2 0 00-1.36 2.36L10 42M38 6l6.58 2.16a2 2 0 011.36 2.36L38 42" fill="#ffd259"/><path fill="#fff" d="M13 38h22v8H13zm0-36h22v6H13z"/><path fill="#60deae" d="M13 8h22v30H13z"/><path d="M10 6L3.42 8.16a2 2 0 00-1.36 2.36L10 42M38 6l6.58 2.16a2 2 0 011.36 2.36L38 42m-3-4v6a2 2 0 01-2 2H15a2 2 0 01-2-2V4a2 2 0 012-2h18a2 2 0 012 2v34z" fill="none" stroke="#423e5e" stroke-linecap="round" stroke-linejoin="round" stroke-width="2"/><path fill="none" stroke="#423e5e" stroke-linejoin="round" stroke-width="2" d="M35 38H13"/><path fill="none" stroke="#423e5e" stroke-miterlimit="10" stroke-width="2" d="M13 8h22"/><path fill="none" stroke="#423e5e" stroke-linecap="round" stroke-linejoin="round" stroke-width="2" d="M23 5h2"/><circle cx="24" cy="42" r="1" fill="#423e5e" stroke="#423e5e" stroke-linecap="round" stroke-linejoin="round" stroke-width="2"/></svg>