<svg id="icons" xmlns="http://www.w3.org/2000/svg" viewBox="0 0 48 48"><title>smartphone-vibration</title><g id="smartphone-vibration"><path d="M10,6,3.42,8.16a2,2,0,0,0-1.36,2.36L10,42" fill="#ffd259"/><path d="M38,6l6.58,2.16a2,2,0,0,1,1.36,2.36L38,42" fill="#ffd259"/><rect x="13" y="38" width="22" height="8" fill="#fff"/><rect x="13" y="2" width="22" height="6" fill="#fff"/><rect x="13" y="8" width="22" height="30" fill="#60deae"/><path d="M10,6,3.42,8.16a2,2,0,0,0-1.36,2.36L10,42" fill="none" stroke="#423e5e" stroke-linecap="round" stroke-linejoin="round" stroke-width="2"/><path d="M38,6l6.58,2.16a2,2,0,0,1,1.36,2.36L38,42" fill="none" stroke="#423e5e" stroke-linecap="round" stroke-linejoin="round" stroke-width="2"/><path d="M35,38v6a2,2,0,0,1-2,2H15a2,2,0,0,1-2-2V4a2,2,0,0,1,2-2H33a2,2,0,0,1,2,2V38Z" fill="none" stroke="#423e5e" stroke-linecap="round" stroke-linejoin="round" stroke-width="2"/><line x1="35" y1="38" x2="13" y2="38" fill="none" stroke="#423e5e" stroke-linejoin="round" stroke-width="2"/><line x1="13" y1="8" x2="35" y2="8" fill="none" stroke="#423e5e" stroke-miterlimit="10" stroke-width="2"/><line x1="23" y1="5" x2="25" y2="5" fill="none" stroke="#423e5e" stroke-linecap="round" stroke-linejoin="round" stroke-width="2"/><circle cx="24" cy="42" r="1" fill="#423e5e" stroke="#423e5e" stroke-linecap="round" stroke-linejoin="round" stroke-width="2"/></g></svg>